<svg width="164" height="37" viewBox="0 0 164 37" fill="none" xmlns="http://www.w3.org/2000/svg">
<path d="M10.1526 17.5412C10.7302 17.5412 11.1633 17.5412 11.7409 17.5412C12.3185 17.5412 12.7516 17.5412 13.3292 17.5412C13.9068 17.5412 14.4843 17.6856 15.2063 17.83C15.6395 17.9744 15.9282 18.1188 16.0726 18.4075C16.3614 18.6963 16.5058 18.9851 16.5058 19.2739C16.6502 19.5627 16.6502 19.9958 16.5058 20.2846C16.3614 20.5734 16.217 21.0066 15.9282 21.151C15.7839 21.2954 15.4951 21.4398 15.3507 21.5842C15.0619 21.7285 14.9175 21.8729 14.6287 21.8729C14.1955 22.0173 13.7624 22.1617 13.1848 22.1617C12.7516 22.1617 12.1741 22.3061 11.7409 22.3061C11.5965 22.3061 11.3077 22.3061 11.1633 22.3061C11.0189 22.3061 10.7302 22.3061 10.5858 22.3061C10.5858 22.8837 10.7302 23.3169 10.8745 23.8944C11.0189 24.472 11.1633 24.9052 11.3077 25.4827C11.4521 26.0603 11.5965 26.4935 11.7409 27.071C11.8853 27.5042 11.8853 28.0818 11.8853 28.3705C11.8853 29.2369 11.7409 29.9589 11.3077 30.5364C10.8745 31.114 10.297 31.6916 9.57502 31.8359C8.70867 32.1247 8.13111 32.1247 7.55355 31.9803C6.97598 31.8359 6.54281 31.4028 6.10963 30.9696C5.67646 30.5364 5.38767 29.8145 5.24327 29.2369C4.95449 28.5149 4.81011 27.793 4.66572 27.071C4.52133 26.3491 4.37693 25.6271 4.37693 24.9052C4.23254 24.1832 4.23254 23.6056 4.08815 23.1725C3.79937 23.0281 3.51058 23.0281 2.93301 23.0281C2.49984 23.0281 2.06667 23.0281 1.92228 22.8837C1.34471 22.7393 0.911537 22.4505 0.622754 22.1617C0.333971 21.7285 0.189575 21.4398 0.189575 20.8622C0.189575 20.2846 0.333971 19.8515 0.622754 19.5627C0.911537 19.1295 1.34471 18.8407 1.92228 18.6963C2.06667 18.6963 2.35545 18.5519 2.78863 18.5519C3.2218 18.5519 3.51058 18.4075 3.65497 18.4075C3.51058 17.6856 3.51058 16.8192 3.51058 15.8085C3.51058 14.7978 3.51058 13.9314 3.65497 12.9207C3.79936 11.9099 3.94376 10.8992 4.08815 10.0328C4.37693 9.0221 4.66571 8.15575 5.09889 7.43379C5.53206 6.56744 6.10962 5.98989 6.68719 5.41232C7.26475 4.83476 8.13111 4.54597 8.99746 4.40158C10.5858 4.11279 11.8853 4.25719 12.896 4.69036C14.0512 5.12354 14.9175 6.13428 15.6395 7.57819C15.9282 8.30015 16.217 8.87771 16.3614 9.59966C16.5058 10.3216 16.7946 11.0436 16.939 11.7655C17.0834 12.3431 16.939 12.7763 16.6502 13.3538C16.3614 13.9314 16.0726 14.3646 15.6395 14.6534C15.2063 14.9421 14.7731 15.0865 14.1955 14.9422C13.618 14.7978 13.1848 14.3646 12.6072 13.6426C12.3185 12.1987 11.8853 11.3324 11.5965 10.8992C11.1633 10.466 10.8745 10.3216 10.5858 10.466C10.297 10.6104 10.0082 11.0436 9.86381 11.6211C9.71942 12.1987 9.57502 12.9207 9.57502 13.6426C9.57502 14.2202 9.57503 14.7978 9.71942 15.5197C9.86381 16.0973 10.0082 16.8192 10.1526 17.5412Z" fill="#363839"/>
<path d="M25.8912 11.3327C26.0356 11.1883 26.18 11.0439 26.4687 10.8995C26.6131 10.7551 26.7575 10.6107 27.0463 10.4664C28.057 9.7444 29.2122 9.45561 30.2229 9.16683C31.378 9.02244 32.3888 9.31122 33.5439 10.0332C34.1215 10.4664 34.5547 10.8995 34.8434 11.4771C35.1322 12.0547 35.2766 12.6322 35.1322 13.2098C34.9878 13.7873 34.8434 14.3649 34.4103 14.7981C33.9771 15.2313 33.3995 15.3757 32.822 15.5201C32.2444 15.6644 31.6668 15.5201 31.2337 15.2313C30.6561 14.6537 29.9341 14.5093 29.501 14.5093C28.9234 14.5093 28.4902 14.7981 28.057 15.2313C27.6239 15.6644 27.3351 16.0976 27.0463 16.8196C26.7575 17.3971 26.7575 18.1191 26.7575 18.6967C26.7575 19.7074 26.9019 20.5738 27.0463 21.5845C27.1907 22.5952 27.3351 23.606 27.6239 24.9055C27.6239 25.4831 27.6239 26.0606 27.6239 26.6382C27.6239 27.2158 27.4795 27.6489 27.1907 28.0821C26.9019 28.5153 26.6131 28.9485 26.18 29.2372C25.7468 29.526 25.1692 29.6704 24.5916 29.8148C23.8697 29.9592 23.2921 29.8148 22.859 29.526C22.4258 29.2372 21.9926 28.9485 21.5594 28.5153C21.2706 28.0821 20.9819 27.6489 20.6931 27.0714C20.5487 26.4938 20.2599 26.0606 20.1155 25.4831C19.8267 24.4723 19.6823 23.3172 19.5379 22.1621C19.3936 20.8625 19.2492 19.563 19.2492 18.2635C19.2492 16.964 19.2492 15.5201 19.2492 14.2205C19.3936 12.7766 19.3936 11.4771 19.6823 10.322C19.8267 9.74439 19.9711 9.16683 20.4043 8.73365C20.8375 8.30048 21.2706 8.0117 21.8482 7.86731C22.4258 7.72291 23.0033 7.72291 23.5809 8.0117C24.1585 8.15609 24.5917 8.58926 25.0248 9.31122C25.1692 9.6 25.3136 9.88878 25.458 10.322C25.6024 10.6107 25.7468 10.8995 25.8912 11.3327Z" fill="#363839"/>
<path d="M49.7157 24.6167C49.4269 25.1942 48.9937 25.7718 48.4162 26.3494C47.8386 26.9269 47.4054 27.3601 46.6835 27.6489C46.1059 27.9377 45.3839 28.2265 44.662 28.3708C43.94 28.5152 43.2181 28.3708 42.4961 28.2265C41.341 27.9377 40.3302 27.3601 39.6083 26.7825C38.8863 26.0606 38.1644 25.3386 37.7312 24.3279C37.298 23.4615 36.8648 22.3064 36.7205 21.2957C36.5761 20.1405 36.4317 19.1298 36.4317 17.9747C36.4317 16.8195 36.5761 15.6644 36.7205 14.6537C36.8648 13.6429 37.1536 12.6322 37.4424 11.7658C37.7312 11.0439 38.1644 10.4663 38.7419 9.88875C39.3195 9.45558 40.0415 9.1668 40.7634 9.0224C41.4854 8.87801 42.2073 9.0224 42.7849 9.45557C43.3625 9.88875 43.94 10.4663 44.2288 11.4771C44.3732 12.0546 44.3732 12.7766 44.3732 13.4985C44.3732 14.2205 44.2288 14.9424 44.0844 15.8088C43.94 16.5308 43.7956 17.3971 43.7956 18.1191C43.6513 18.841 43.6513 19.4186 43.6513 19.9962C43.7956 21.5845 43.94 22.7396 44.5176 23.3171C45.0952 23.8947 45.5283 24.0391 45.9615 23.6059C46.5391 23.1728 46.9723 22.162 47.5498 20.7181C47.983 19.1298 48.4162 16.9639 48.5606 14.2205C48.5606 13.3541 48.8493 12.6322 49.4269 11.9102C50.0045 11.3327 50.7264 10.8995 51.5928 10.7551C52.4591 10.6107 53.0367 10.7551 53.6143 11.1883C54.1918 11.6215 54.4806 12.3434 54.625 13.0654C54.625 13.6429 54.625 14.0761 54.625 14.6537C54.625 15.2312 54.625 15.6644 54.4806 16.242C54.4806 17.3971 54.4806 18.5522 54.3362 19.8518C54.1918 21.1513 54.3362 22.162 54.1918 23.4615C54.1918 23.8947 54.1918 24.1835 54.1918 24.6167C54.1918 25.0498 54.1918 25.483 54.1918 25.9162C54.1918 26.3494 54.0474 26.6381 53.7587 26.9269C53.6143 27.2157 53.3255 27.3601 52.8923 27.5045C52.4591 27.7933 52.026 27.7933 51.5928 27.7933C51.1596 27.6489 50.8708 27.5045 50.582 27.2157C50.2933 26.9269 50.0045 26.6381 49.8601 26.205C50.1489 25.483 49.8601 25.0498 49.7157 24.6167Z" fill="#363839"/>
<path d="M64.4438 26.9267C64.2994 27.6487 64.0106 28.2263 63.5775 28.6594C63.1443 29.0926 62.7111 29.5258 61.9892 29.5258C61.2672 29.6702 60.5452 29.3814 59.9677 28.9482C59.3901 28.515 58.9569 27.6487 58.6681 26.9267C58.3794 26.0604 58.0906 25.3384 57.9462 24.4721C57.8018 23.6057 57.6574 22.8838 57.6574 22.4506C57.6574 20.1403 58.0906 17.9745 58.6681 15.953C58.8125 15.3754 59.1013 14.9423 59.2457 14.5091C59.5345 14.0759 59.9677 13.7871 60.4008 13.4983C60.834 13.354 61.2672 13.2096 61.7004 13.2096C62.1335 13.2096 62.5667 13.354 62.9999 13.6427C63.4331 13.9315 63.7218 14.2203 64.0106 14.6535C64.155 14.9423 64.2994 15.3754 64.4438 15.6642C64.5882 16.0974 64.5882 16.3862 64.7326 16.8193C64.877 17.5413 64.877 18.2633 64.877 19.274C64.877 20.1404 64.877 21.1511 64.877 22.0174C64.877 22.8838 64.7326 23.8945 64.7326 24.7609C64.7326 25.6272 64.7326 26.3492 64.4438 26.9267Z" fill="#363839"/>
<path d="M70.7969 15.52C70.9413 13.6429 71.0856 11.7658 71.23 10.0331C71.3744 8.30043 71.6632 6.56773 71.8076 4.83503C71.952 4.25747 72.0964 3.6799 72.2408 3.10233C72.5296 2.52477 72.8184 2.09159 73.1071 1.65842C73.3959 1.22524 73.8291 0.936464 74.4067 0.647681C74.8398 0.358899 75.4174 0.358901 76.1394 0.503292C77.5833 0.792075 78.4496 1.51403 78.8828 2.81355C79.0272 3.39112 79.1716 4.11308 79.0272 4.69065C79.0272 5.26821 78.8828 5.99016 78.8828 6.56773C78.7384 7.86725 78.594 9.16678 78.4496 10.4663C78.3052 11.7658 78.1609 13.0653 78.0165 14.3649C78.0165 14.5093 78.0165 14.6537 78.0165 14.798C78.0165 14.9424 78.0165 15.0868 78.0165 15.2312C78.3052 15.2312 78.594 15.2312 78.7384 15.3756C78.8828 15.52 79.316 15.3756 79.6047 15.52C79.7491 15.52 79.8935 15.52 80.0379 15.52C80.1823 15.52 80.3267 15.52 80.4711 15.6644C80.9043 15.8088 81.1931 15.9532 81.4818 16.242C81.7706 16.5307 81.915 16.8195 81.915 17.1083C81.915 17.3971 81.7706 17.8303 81.6262 17.9747C81.3375 18.2634 81.0487 18.4078 80.6155 18.5522C80.3267 18.5522 80.1823 18.6966 79.8935 18.6966C79.7491 18.6966 79.4604 18.6966 79.1716 18.841C79.0272 18.841 78.7384 18.9854 78.594 18.9854C78.4496 18.9854 78.1609 18.9854 78.0165 18.9854C77.8721 19.7073 77.8721 20.2849 78.0165 21.0069C78.1609 21.7288 78.1608 22.3064 78.3052 23.0284C78.4496 23.7503 78.594 24.6167 78.7384 25.3386C78.8828 26.0606 79.0272 26.9269 79.1716 27.6489C79.316 28.082 79.1716 28.5152 79.0272 28.9484C78.8828 29.3816 78.594 29.6704 78.3052 29.9591C78.0164 30.2479 77.5833 30.3923 77.1501 30.5367C76.7169 30.6811 76.2838 30.6811 75.7062 30.5367C75.1286 30.3923 74.551 30.2479 74.1179 29.8147C73.6847 29.526 73.2515 29.0928 72.9628 28.6596C72.5296 28.0821 72.0964 27.3601 71.8076 26.4937C71.5188 25.6274 71.2301 24.9054 71.0857 24.0391C70.9413 23.1727 70.7969 22.3064 70.7969 21.5844C70.7969 20.7181 70.6525 19.9961 70.6525 19.2742C70.2193 19.2742 69.6417 19.2742 69.2086 19.1298C68.631 19.1298 68.0534 18.9854 67.6203 18.5522C67.1871 18.119 67.1871 17.6859 67.3315 17.1083C67.4759 16.6751 67.909 16.242 68.4866 16.0976C68.7754 16.0976 69.0642 15.9532 69.4973 15.9532C70.0749 15.6644 70.3637 15.52 70.7969 15.52Z" fill="#363839"/>
<path d="M96.0655 12.3434C96.2099 11.9102 96.3542 11.3327 96.4986 10.8995C96.643 10.4663 96.7874 10.0331 97.0762 9.59995C97.2206 9.16678 97.5094 8.878 97.6538 8.58922C97.7981 8.30043 98.0869 8.15604 98.3757 8.01165C99.6752 7.57847 100.686 7.57847 101.552 8.15604C102.419 8.58921 103.141 9.45556 103.429 10.7551C103.718 11.9102 104.007 13.3541 104.296 14.9424C104.44 16.5307 104.585 18.2634 104.44 19.9961C104.44 21.7288 104.151 23.6059 103.863 25.3386C103.574 27.0713 102.996 28.804 102.419 30.2479C101.697 31.6918 100.83 32.9914 99.8196 34.1465C98.8089 35.3016 97.5094 36.0236 96.0655 36.3124C95.0547 36.6011 94.044 36.6012 92.8888 36.6012C91.7337 36.6012 90.723 36.3124 89.5678 36.0236C88.4127 35.5904 87.402 35.1572 86.5356 34.4353C85.6693 33.7133 84.8029 32.9914 84.2253 32.125C83.9366 31.5475 83.6478 31.1143 83.5034 30.5367C83.359 29.9591 83.359 29.3816 83.5034 28.804C83.6478 28.2265 83.9366 27.6489 84.3697 27.2157C84.8029 26.7825 85.2361 26.4938 85.8137 26.3494C86.3912 26.205 86.9688 26.0606 87.5464 26.205C88.1239 26.3494 88.7015 26.4937 89.1347 26.9269C89.2791 27.0713 89.4235 27.2157 89.5678 27.3601C89.7122 27.5045 89.8566 27.6489 90.001 27.9377C90.8673 29.0928 91.7337 29.6704 92.6001 29.8148C93.4664 29.9591 94.3327 29.6704 95.0547 29.2372C95.7767 28.6596 96.4986 27.9377 97.0762 26.9269C97.6538 25.9162 97.9426 24.7611 98.2313 23.6059C98.5201 22.3064 98.5201 21.0069 98.5201 19.7074C98.5201 18.4078 98.3757 17.1083 98.2313 15.9532C97.7982 16.5307 97.365 17.3971 96.7874 18.2634C96.2098 19.1298 95.6323 20.1405 95.0547 21.0069C94.4771 21.8732 93.7552 22.7396 93.0332 23.3171C92.3113 24.0391 91.5893 24.3279 90.723 24.4723C89.8566 24.6167 88.9903 24.4723 88.4127 24.1835C87.6908 23.8947 87.1132 23.3171 86.5356 22.7396C85.8137 22.0176 85.3805 20.8625 85.0917 19.7074C84.8029 18.4078 84.6585 17.1083 84.6585 15.8088C84.6585 14.5093 84.8029 13.2097 84.9473 11.9102C85.2361 10.6107 85.5249 9.59995 85.8137 8.87799C86.2468 8.01165 86.8244 7.43408 87.5464 7.1453C88.2683 6.85652 88.9903 6.71213 89.7122 6.85652C90.4342 7.00091 91.0117 7.28969 91.4449 7.86726C91.8781 8.44482 92.1669 9.16678 92.0225 10.1775C91.8781 11.1883 91.7337 12.199 91.7337 13.3541C91.7337 14.5093 91.7337 15.3756 91.7337 16.242C91.7337 17.1083 91.8781 17.8303 92.0225 18.2634C92.1669 18.841 92.4557 18.9854 92.7445 18.841C93.0332 18.6966 93.4664 18.1191 94.044 17.1083C94.7659 15.9532 95.4879 14.3649 96.0655 12.3434Z" fill="#363839"/>
<path d="M114.836 10.755C114.692 12.0546 114.692 13.4985 114.548 14.9424C114.403 16.3863 114.259 17.9746 114.259 19.4185C114.259 20.8624 114.259 22.3064 114.259 23.7503C114.403 25.1942 114.548 26.4937 114.836 27.6488C114.981 28.2264 114.981 28.804 114.836 29.2372C114.548 29.6703 114.259 30.1035 113.681 30.3923C113.248 30.6811 112.67 30.8255 112.093 30.6811C111.515 30.5367 111.082 30.3923 110.649 29.9591C110.071 29.2372 109.638 28.5152 109.205 27.5044C108.772 26.4937 108.483 25.483 108.194 24.3278C107.906 23.1727 107.761 22.0176 107.472 20.8624C107.328 19.7073 107.184 18.4078 107.184 17.2527C107.184 16.0975 107.039 14.9424 107.039 13.9317C107.039 12.9209 107.039 11.9102 107.184 11.1882C107.184 10.3219 107.328 9.45552 107.472 8.58917C107.617 7.72282 107.761 6.85647 107.906 5.99012C107.906 5.70134 108.05 5.41256 108.194 5.12378C108.339 4.83499 108.483 4.6906 108.483 4.40182C109.061 3.39108 109.927 2.81352 111.227 2.81352C112.382 2.81352 113.248 3.39108 113.826 4.54621C114.259 5.41256 114.548 6.42331 114.548 7.57844C114.692 8.73357 114.836 9.7443 114.836 10.755Z" fill="#363839"/>
<path d="M124.222 26.9267C124.077 27.6487 123.789 28.2263 123.355 28.6594C122.922 29.0926 122.489 29.5258 121.767 29.5258C121.045 29.6702 120.323 29.3814 119.746 28.9482C119.168 28.515 118.735 27.6487 118.446 26.9267C118.157 26.0604 117.868 25.3384 117.724 24.4721C117.58 23.6057 117.435 22.8838 117.435 22.4506C117.435 20.1403 117.868 17.9745 118.446 15.953C118.59 15.3754 118.879 14.9423 119.024 14.5091C119.312 14.0759 119.746 13.7871 120.179 13.4983C120.612 13.354 121.045 13.2096 121.478 13.2096C121.911 13.2096 122.345 13.354 122.778 13.6427C123.211 13.9315 123.5 14.2203 123.789 14.6535C123.933 14.9423 124.077 15.3754 124.222 15.6642C124.366 16.0974 124.366 16.3862 124.51 16.8193C124.655 17.5413 124.655 18.2633 124.655 19.274C124.655 20.1404 124.655 21.1511 124.655 22.0174C124.655 22.8838 124.51 23.8945 124.51 24.7609C124.51 25.6272 124.366 26.3492 124.222 26.9267Z" fill="#363839"/>
<path d="M135.918 8.87796C136.495 8.58918 136.928 8.3004 137.217 8.01162C138.083 7.43405 138.95 7.14528 139.961 6.85649C140.827 6.56771 141.838 6.56771 142.848 6.85649C143.715 7.00089 144.581 7.43406 145.159 7.86723C145.881 8.4448 146.458 9.02237 146.891 9.74432C147.325 10.4663 147.613 11.3326 147.758 12.199C147.902 13.0653 147.902 13.9317 147.613 14.9424C147.325 15.9532 147.036 16.9639 146.458 17.9746C145.881 18.9854 145.159 19.7073 144.437 20.4293C143.57 21.1512 142.704 21.7288 141.838 22.3064C140.827 22.7395 139.816 23.0283 138.805 23.1727C138.228 23.1727 137.795 23.1727 137.217 23.0283C136.64 22.8839 136.062 22.8839 135.484 22.7396C135.629 23.4615 135.629 24.1835 135.629 24.9054C135.629 25.6274 135.773 26.3493 135.773 27.0713C135.773 27.6489 135.918 28.082 135.918 28.6596C136.062 29.2372 136.062 29.6703 136.206 30.2479C136.351 30.8255 136.351 31.403 136.062 31.8362C135.918 32.4138 135.629 32.7026 135.196 32.9913C134.185 33.7133 133.174 33.5689 132.163 32.9913C131.73 32.7026 131.297 32.2694 130.864 31.8362C130.575 31.403 130.286 30.9699 129.998 30.3923C129.709 29.5259 129.42 28.6596 129.131 27.9376C128.842 27.0713 128.554 26.2049 128.409 25.3386C127.976 22.5952 127.687 19.9961 127.687 17.2527C127.687 14.5092 127.832 11.9102 128.409 9.16675C128.554 8.58919 128.698 7.86722 128.842 7.43405C128.987 7.00088 129.131 6.56771 129.42 6.27893C129.709 5.99014 129.998 5.55696 130.286 5.26818C130.864 4.835 131.297 4.54622 131.875 4.40183C132.452 4.25744 133.03 4.40183 133.607 4.54622C134.762 4.9794 135.484 5.99014 135.629 7.28966C135.629 7.43405 135.773 7.72284 135.773 7.86723C135.918 8.3004 135.918 8.58918 135.918 8.87796ZM135.629 18.2634C135.773 18.2634 135.918 18.4078 136.062 18.4078C136.206 18.4078 136.206 18.4078 136.351 18.5522C136.928 18.6966 137.506 18.5522 138.083 18.4078C138.661 18.2634 139.239 17.9746 139.672 17.5415C140.249 17.1083 140.682 16.6751 140.971 16.2419C141.404 15.6644 141.549 15.0868 141.693 14.5092C141.693 14.3648 141.693 14.0761 141.693 13.7873C141.693 13.4985 141.549 13.3541 141.549 13.2097C141.404 12.9209 141.116 12.9209 140.971 13.0653C140.682 13.2097 140.538 13.2097 140.394 13.3541C139.383 13.9317 138.372 14.6536 137.65 15.52C137.073 16.2419 136.351 17.2527 135.629 18.2634Z" fill="#363839"/>
<path d="M147.757 23.6057C147.757 23.3169 147.757 23.1725 147.757 22.8838C147.757 22.7394 147.758 22.595 147.902 22.4506C147.902 22.0174 148.046 21.5842 148.335 21.2955C148.624 21.0067 148.913 20.7179 149.201 20.5735C149.49 20.4291 149.923 20.4291 150.212 20.4291C150.645 20.4291 150.934 20.5735 151.367 20.8623C151.656 21.0067 151.945 21.2955 152.234 21.4398C152.522 21.5842 152.667 21.873 152.956 22.1618C153.244 22.4506 153.389 22.7394 153.678 22.8838C153.966 23.1725 154.111 23.4613 154.4 23.6057C154.544 23.7501 154.833 23.8945 154.977 23.8945C155.121 23.8945 155.41 23.8945 155.555 23.7501C155.699 23.6057 155.843 23.4613 155.988 23.3169C156.132 23.1725 156.132 22.8838 156.132 22.7394C156.132 22.1618 155.988 21.5842 155.699 21.0067C155.41 20.4291 155.121 19.8515 154.833 19.4184C154.4 18.8408 153.966 18.2632 153.533 17.5413C153.1 16.9637 152.667 16.3861 152.234 15.6642C151.656 14.9422 151.367 14.2203 151.223 13.3539C151.079 12.4876 150.934 11.6212 151.079 10.7549C151.223 9.45535 151.656 8.44462 152.234 7.57827C152.811 6.71192 153.389 6.13435 154.255 5.84557C154.977 5.41239 155.843 5.268 156.71 5.268C157.576 5.268 158.442 5.41239 159.309 5.84557C160.175 6.13435 160.897 6.71192 161.619 7.28948C162.341 7.86705 162.919 8.73339 163.352 9.59974C163.496 10.0329 163.641 10.6105 163.496 11.0437C163.352 11.6212 163.207 12.0544 162.774 12.3432C162.485 12.7764 162.052 12.9207 161.619 13.0651C161.186 13.2095 160.753 13.0651 160.32 12.9207C160.031 12.7764 159.742 12.4876 159.598 12.0544C159.453 11.7656 159.164 11.3324 159.02 11.0437C158.731 10.4661 158.298 10.1773 157.865 10.0329C157.432 9.88853 157.143 10.0329 156.854 10.1773C156.565 10.4661 156.421 10.7549 156.421 11.3324C156.421 11.91 156.71 12.4876 157.143 13.0651C157.865 14.0759 158.587 14.7978 159.309 15.5198C160.031 16.2418 160.753 16.9637 161.33 17.6857C162.341 18.9852 163.063 20.2847 163.207 21.7286C163.496 23.1725 163.352 24.6165 162.774 25.916C162.341 27.2155 161.475 28.3706 160.464 29.237C159.453 30.1033 158.009 30.6809 156.421 30.9697C155.121 31.1141 153.966 30.9697 152.811 30.3921C151.656 29.8145 150.79 29.0926 149.923 28.2262C148.624 26.7823 147.902 25.3384 147.757 23.6057Z" fill="#363839"/>
</svg>
